<svg width="32" height="19" viewBox="0 0 32 19" fill="none" xmlns="http://www.w3.org/2000/svg">
<path fill-rule="evenodd" clip-rule="evenodd" d="M2.56998 13.4949L7.70985 18.6348L7.70987 18.6348L15.4197 18.6348V15.4223H14.7429V11.1819L17.0559 11.1819V15.4223H16.3792V18.6348H24.089V18.6347L29.2288 13.4949V11.1819H32V7.99521H29.2288V5.78512L29.2288 5.78508L24.089 0.645203L24.0889 0.645266V0.645203H16.3791V3.85762H17.0559V7.99521L14.7429 7.99521V3.85763L15.4197 3.85763L15.4197 0.645203H7.70985V0.645241L7.70983 0.645215L2.56995 5.78507V5.78509L2.56995 7.99521H0V11.1819H2.56995L2.56995 13.4949H2.56999L2.56998 13.4949ZM5.78237 11.1819V12.1642L9.04048 15.4223H11.5561V11.1819H5.78237ZM11.5561 7.99521V3.85762L9.04047 3.85762L5.78237 7.11572V7.99521L11.5561 7.99521ZM20.2426 11.1819V15.4223H22.7583L26.0164 12.1643V11.1819H20.2426ZM26.0164 7.99521L20.2426 7.99521V3.85762H22.7583L26.0164 7.11566V7.99521Z" fill="url(#paint0_linear_26_306)"/>
<defs>
<linearGradient id="paint0_linear_26_306" x1="32" y1="18.6176" x2="-9.48046e-06" y2="0.692333" gradientUnits="userSpaceOnUse">
<stop stop-color="#2BB5ED"/>
<stop offset="1" stop-color="#005172"/>
</linearGradient>
</defs>
</svg>
