<svg width="397" height="136" viewBox="0 0 397 136" fill="none" xmlns="http://www.w3.org/2000/svg">
<path fill-rule="evenodd" clip-rule="evenodd" d="M396.774 0V24.1935L377.419 24.1935V111.29L396.774 111.29V135.484H333.871V111.29L353.226 111.29V24.1935L333.871 24.1935V0H396.774ZM0 1.52588e-05H58.0645H58.0646L96.7742 38.7097L96.7743 38.7097L96.7742 38.7098V96.7742L58.0645 135.484L5.72205e-05 135.484V111.29H5.0968V24.1936H0V1.52588e-05ZM29.0968 111.29H48.0432L72.5806 86.7529V48.7309L48.0433 24.1936H29.0968V111.29ZM111.307 106.452L111.29 106.469L135.501 135.484H183.888V135.446L208.081 106.452V53.2258V1.90735e-06H183.888V53.2258V97.9001L172.715 111.29H146.622L135.501 97.9624V53.2258V1.90735e-06H111.307V53.2258V106.452ZM247.21 53.2258V1.52588e-05H223.017V53.2258V106.452L223 106.469L247.21 135.484H295.597V135.446L319.791 106.452V53.2258V1.52588e-05H295.597V53.2258V97.9001L284.424 111.29H258.331L247.21 97.9625V53.2258Z" fill="url(#paint0_linear_21_68)"/>
<defs>
<linearGradient id="paint0_linear_21_68" x1="397" y1="135" x2="-7.83727e-06" y2="2.30474e-05" gradientUnits="userSpaceOnUse">
<stop stop-color="#00B5FF"/>
<stop offset="1" stop-color="#005172"/>
</linearGradient>
</defs>
</svg>
