<svg width="399" height="137" viewBox="0 0 399 137" fill="none" xmlns="http://www.w3.org/2000/svg">
<path fill-rule="evenodd" clip-rule="evenodd" d="M397.774 0.999985V25.1935L378.419 25.1935V112.29L397.774 112.29V136.484H334.871V112.29L354.226 112.29V25.1935L334.871 25.1935V0.999985H397.774ZM1 1H59.0645H59.0646L97.7742 39.7097L97.7743 39.7097L97.7742 39.7098V97.7742L59.0645 136.484L1.00006 136.484V112.29H6.0968V25.1935H1V1ZM30.0968 112.29H49.0432L73.5806 87.7529V49.7309L49.0433 25.1935H30.0968V112.29ZM112.307 107.452L112.29 107.469L136.501 136.484H184.888V136.446L209.081 107.452V54.2258V0.999987H184.888V54.2258V98.9L173.715 112.29H147.622L136.501 98.9624V54.2258V0.999987H112.307V54.2258V107.452ZM248.21 54.2258V1H224.017V54.2258V107.452L224 107.469L248.21 136.484H296.597V136.446L320.791 107.452V54.2258V1H296.597V54.2258V98.9001L285.424 112.29H259.331L248.21 98.9624V54.2258Z" fill="url(#paint0_linear_21_68)"/>
<path d="M397.774 25.1935L397.774 25.6935L398.274 25.6935V25.1935H397.774ZM397.774 0.999985H398.274V0.499985H397.774V0.999985ZM378.419 25.1935L378.419 24.6935L377.919 24.6935V25.1935H378.419ZM378.419 112.29H377.919V112.79L378.419 112.79L378.419 112.29ZM397.774 112.29H398.274V111.79L397.774 111.79L397.774 112.29ZM397.774 136.484V136.984H398.274V136.484H397.774ZM334.871 136.484H334.371V136.984H334.871V136.484ZM334.871 112.29L334.871 111.79L334.371 111.79V112.29H334.871ZM354.226 112.29L354.226 112.79L354.726 112.79V112.29H354.226ZM354.226 25.1935H354.726V24.6935L354.226 24.6935L354.226 25.1935ZM334.871 25.1935H334.371V25.6935L334.871 25.6935L334.871 25.1935ZM334.871 0.999985V0.499985H334.371V0.999985H334.871ZM1 1V0.5H0.5V1H1ZM59.0646 1L59.4181 0.646447L59.2717 0.5H59.0646V1ZM97.7742 39.7097L97.4206 40.0632L97.5145 40.1571L97.6426 40.192L97.7742 39.7097ZM97.7743 39.7097L98.1278 40.0632L98.737 39.454L97.9058 39.2273L97.7743 39.7097ZM97.7742 39.7098L97.4206 39.3562L97.2742 39.5027V39.7098H97.7742ZM97.7742 97.7742L98.1277 98.1277L98.2742 97.9813V97.7742H97.7742ZM59.0645 136.484L59.0645 136.984L59.2716 136.984L59.418 136.837L59.0645 136.484ZM1.00006 136.484H0.500057V136.984L1.00006 136.984L1.00006 136.484ZM1.00006 112.29V111.79H0.500057V112.29H1.00006ZM6.0968 112.29V112.79H6.5968V112.29H6.0968ZM6.0968 25.1935H6.5968V24.6935H6.0968V25.1935ZM1 25.1935H0.5V25.6935H1V25.1935ZM49.0432 112.29V112.79H49.2503L49.3967 112.644L49.0432 112.29ZM30.0968 112.29H29.5968V112.79H30.0968V112.29ZM73.5806 87.7529L73.9342 88.1064L74.0806 87.96V87.7529H73.5806ZM73.5806 49.7309H74.0806V49.5238L73.9342 49.3773L73.5806 49.7309ZM49.0433 25.1935L49.3968 24.84L49.2504 24.6935H49.0433V25.1935ZM30.0968 25.1935V24.6935H29.5968V25.1935H30.0968ZM112.29 107.469L111.93 107.123L111.62 107.446L111.906 107.789L112.29 107.469ZM112.307 107.452L112.668 107.798L112.807 107.653V107.452H112.307ZM136.501 136.484L136.117 136.804L136.267 136.984H136.501V136.484ZM184.888 136.484V136.984H185.388V136.484H184.888ZM184.888 136.446L184.504 136.126L184.388 136.265V136.446H184.888ZM209.081 107.452L209.465 107.772L209.581 107.633V107.452H209.081ZM209.081 0.999987H209.581V0.499987H209.081V0.999987ZM184.888 0.999987V0.499987H184.388V0.999987H184.888ZM184.888 98.9L185.272 99.2204L185.388 99.0813V98.9H184.888ZM173.715 112.29V112.79H173.949L174.099 112.611L173.715 112.29ZM147.622 112.29L147.238 112.611L147.388 112.79H147.622V112.29ZM136.501 98.9624H136.001V99.1436L136.117 99.2828L136.501 98.9624ZM136.501 0.999987H137.001V0.499987H136.501V0.999987ZM112.307 0.999987V0.499987H111.807V0.999987H112.307ZM248.21 1H248.71V0.5H248.21V1ZM224.017 1V0.5H223.517V1H224.017ZM224.017 107.452L224.378 107.798L224.517 107.653V107.452H224.017ZM224 107.469L223.639 107.123L223.329 107.446L223.616 107.789L224 107.469ZM248.21 136.484L247.826 136.804L247.976 136.984H248.21V136.484ZM296.597 136.484V136.984H297.097V136.484H296.597ZM296.597 136.446L296.214 136.126L296.097 136.265V136.446H296.597ZM320.791 107.452L321.175 107.772L321.291 107.633V107.452H320.791ZM320.791 1H321.291V0.5H320.791V1ZM296.597 1V0.5H296.097V1H296.597ZM296.597 98.9001L296.981 99.2204L297.097 99.0813V98.9001H296.597ZM285.424 112.29V112.79H285.658L285.808 112.611L285.424 112.29ZM259.331 112.29L258.947 112.611L259.097 112.79H259.331V112.29ZM248.21 98.9624H247.71V99.1437L247.826 99.2828L248.21 98.9624ZM398.274 25.1935V0.999985H397.274V25.1935H398.274ZM378.419 25.6935L397.774 25.6935L397.774 24.6935L378.419 24.6935L378.419 25.6935ZM378.919 112.29V25.1935H377.919V112.29H378.919ZM397.774 111.79L378.419 111.79L378.419 112.79L397.774 112.79L397.774 111.79ZM398.274 136.484V112.29H397.274V136.484H398.274ZM334.871 136.984H397.774V135.984H334.871V136.984ZM334.371 112.29V136.484H335.371V112.29H334.371ZM354.226 111.79L334.871 111.79L334.871 112.79L354.226 112.79L354.226 111.79ZM353.726 25.1935V112.29H354.726V25.1935H353.726ZM334.871 25.6935L354.226 25.6935L354.226 24.6935L334.871 24.6935L334.871 25.6935ZM334.371 0.999985V25.1935H335.371V0.999985H334.371ZM397.774 0.499985H334.871V1.49998H397.774V0.499985ZM59.0645 0.5H1V1.5H59.0645V0.5ZM59.0646 0.5H59.0645V1.5H59.0646V0.5ZM98.1277 39.3561L59.4181 0.646447L58.711 1.35355L97.4206 40.0632L98.1277 39.3561ZM97.9058 39.2273L97.9057 39.2273L97.6426 40.192L97.6427 40.1921L97.9058 39.2273ZM98.1277 40.0633L98.1278 40.0632L97.4207 39.3561L97.4206 39.3562L98.1277 40.0633ZM98.2742 97.7742V39.7098H97.2742V97.7742H98.2742ZM59.418 136.837L98.1277 98.1277L97.4206 97.4206L58.7109 136.13L59.418 136.837ZM1.00006 136.984L59.0645 136.984L59.0645 135.984L1.00006 135.984L1.00006 136.984ZM0.500057 112.29V136.484H1.50006V112.29H0.500057ZM6.0968 111.79H1.00006V112.79H6.0968V111.79ZM5.5968 25.1935V112.29H6.5968V25.1935H5.5968ZM1 25.6935H6.0968V24.6935H1V25.6935ZM0.5 1V25.1935H1.5V1H0.5ZM49.0432 111.79H30.0968V112.79H49.0432V111.79ZM73.2271 87.3993L48.6896 111.937L49.3967 112.644L73.9342 88.1064L73.2271 87.3993ZM73.0806 49.7309V87.7529H74.0806V49.7309H73.0806ZM48.6897 25.5471L73.2271 50.0844L73.9342 49.3773L49.3968 24.84L48.6897 25.5471ZM30.0968 25.6935H49.0433V24.6935H30.0968V25.6935ZM30.5968 112.29V25.1935H29.5968V112.29H30.5968ZM112.651 107.815L112.668 107.798L111.946 107.105L111.93 107.123L112.651 107.815ZM136.885 136.164L112.674 107.149L111.906 107.789L136.117 136.804L136.885 136.164ZM184.888 135.984H136.501V136.984H184.888V135.984ZM184.388 136.446V136.484H185.388V136.446H184.388ZM208.698 107.131L184.504 136.126L185.272 136.767L209.465 107.772L208.698 107.131ZM208.581 54.2258V107.452H209.581V54.2258H208.581ZM208.581 0.999987V54.2258H209.581V0.999987H208.581ZM184.888 1.49999H209.081V0.499987H184.888V1.49999ZM185.388 54.2258V0.999987H184.388V54.2258H185.388ZM185.388 98.9V54.2258H184.388V98.9H185.388ZM174.099 112.611L185.272 99.2204L184.504 98.5797L173.331 111.97L174.099 112.611ZM147.622 112.79H173.715V111.79H147.622V112.79ZM136.117 99.2828L147.238 112.611L148.006 111.97L136.885 98.6421L136.117 99.2828ZM136.001 54.2258V98.9624H137.001V54.2258H136.001ZM136.001 0.999987V54.2258H137.001V0.999987H136.001ZM112.307 1.49999H136.501V0.499987H112.307V1.49999ZM112.807 54.2258V0.999987H111.807V54.2258H112.807ZM112.807 107.452V54.2258H111.807V107.452H112.807ZM247.71 1V54.2258H248.71V1H247.71ZM224.017 1.5H248.21V0.5H224.017V1.5ZM224.517 54.2258V1H223.517V54.2258H224.517ZM224.517 107.452V54.2258H223.517V107.452H224.517ZM224.361 107.815L224.378 107.798L223.656 107.105L223.639 107.123L224.361 107.815ZM248.594 136.164L224.384 107.149L223.616 107.789L247.826 136.804L248.594 136.164ZM296.597 135.984H248.21V136.984H296.597V135.984ZM296.097 136.446V136.484H297.097V136.446H296.097ZM320.407 107.131L296.214 136.126L296.981 136.767L321.175 107.772L320.407 107.131ZM320.291 54.2258V107.452H321.291V54.2258H320.291ZM320.291 1V54.2258H321.291V1H320.291ZM296.597 1.5H320.791V0.5H296.597V1.5ZM297.097 54.2258V1H296.097V54.2258H297.097ZM297.097 98.9001V54.2258H296.097V98.9001H297.097ZM285.808 112.611L296.981 99.2204L296.214 98.5797L285.041 111.97L285.808 112.611ZM259.331 112.79H285.424V111.79H259.331V112.79ZM247.826 99.2828L258.947 112.611L259.715 111.97L248.594 98.6421L247.826 99.2828ZM247.71 54.2258V98.9624H248.71V54.2258H247.71Z" fill="#292929" fill-opacity="0.5"/>
<defs>
<linearGradient id="paint0_linear_21_68" x1="398" y1="136" x2="0.999992" y2="1.00002" gradientUnits="userSpaceOnUse">
<stop stop-color="#F5F5F5"/>
<stop offset="1" stop-color="#F5F5F5"/>
</linearGradient>
</defs>
</svg>
