<svg width="32" height="18" viewBox="0 0 32 18" fill="none" xmlns="http://www.w3.org/2000/svg">
<path fill-rule="evenodd" clip-rule="evenodd" d="M2.56998 12.8497L7.70985 17.9896L7.70987 17.9896L15.4197 17.9896V14.7771H14.7429V10.5367L17.0559 10.5367V14.7771H16.3792V17.9896H24.089V17.9895L29.2288 12.8497V10.5367H32V7.35001H29.2288V5.13992L29.2288 5.13987L24.089 0L24.0889 6.34193e-05V0H16.3791V3.21242H17.0559V7.35001L14.7429 7.35001V3.21242L15.4197 3.21242L15.4197 0H7.70985V3.85963e-05L7.70983 1.18934e-05L2.56995 5.13987V5.13988L2.56995 7.35001H0V10.5367H2.56995L2.56995 12.8497H2.56999L2.56998 12.8497ZM5.78237 10.5367V11.519L9.04048 14.7771H11.5561V10.5367H5.78237ZM11.5561 7.35001V3.21242L9.04047 3.21242L5.78237 6.47051V7.35001L11.5561 7.35001ZM20.2426 10.5367V14.7771H22.7583L26.0164 11.5191V10.5367H20.2426ZM26.0164 7.35001L20.2426 7.35001V3.21242H22.7583L26.0164 6.47046V7.35001Z" fill="url(#paint0_linear_26_306)"/>
<defs>
<linearGradient id="paint0_linear_26_306" x1="32" y1="17.9724" x2="-9.48046e-06" y2="0.0471308" gradientUnits="userSpaceOnUse">
<stop stop-color="#2BB5ED"/>
<stop offset="1" stop-color="#006C98"/>
</linearGradient>
</defs>
</svg>
