<svg width="229" height="186" viewBox="0 0 229 186" fill="none" xmlns="http://www.w3.org/2000/svg">
<path d="M103.5 16V44H98.5V16H103.5Z" fill="#005172"/>
<path d="M107.5 39V44H94.5V39H107.5Z" fill="#006C98"/>
<path d="M107.5 16V21H94.5V16H107.5Z" fill="#006C98"/>
<path d="M91.5 16V44H86.5V16H91.5Z" fill="#005172"/>
<path d="M87.7286 38V43H74.0143V38H87.7286Z" fill="#006C98"/>
<path d="M76.6429 16V44H71.6429V16H76.6429Z" fill="#005172"/>
<path d="M53.6429 16L53.6429 44H48.6429V16H53.6429Z" fill="#005172"/>
<path d="M64.7286 38V43H51.0143V38H64.7286Z" fill="#006C98"/>
<path d="M68.5 16V44H63.5V16H68.5Z" fill="#005172"/>
<rect x="31.5" y="16" width="28" height="5" transform="rotate(90 31.5 16)" fill="#005172"/>
<rect x="25.5" y="16" width="12" height="5" fill="#006C98"/>
<rect x="37.5" y="16" width="11.3137" height="5" transform="rotate(45 37.5 16)" fill="#005172"/>
<rect x="45.5" y="24" width="12" height="5" transform="rotate(90 45.5 24)" fill="#006C98"/>
<rect x="45.5" y="36" width="11.3137" height="5" transform="rotate(135 45.5 36)" fill="#005172"/>
<rect x="37.5" y="39" width="5" height="12" transform="rotate(90 37.5 39)" fill="#006C98"/>
<path d="M199.5 16V44H194.5V16H199.5Z" fill="#005172"/>
<path d="M203.5 39V44H190.5V39H203.5Z" fill="#006C98"/>
<path d="M203.5 16V21H190.5V16H203.5Z" fill="#006C98"/>
<path d="M172.507 16V27H167.507V16H172.507Z" fill="#006C98"/>
<path d="M172.507 27V38H167.507V27H172.507Z" fill="#005172"/>
<path d="M167.503 38.0036L170.957 34.3875L175.96 40.3839L172.507 44L167.503 38.0036Z" fill="#006C98"/>
<path d="M172.507 39H182.507V44H172.507V39Z" fill="#005172"/>
<path d="M187.507 38L184.052 34.3815L179.048 40.3779L182.504 43.9964L187.507 38Z" fill="#006C98"/>
<path d="M187.507 27V38H182.507V27H187.507Z" fill="#005172"/>
<path d="M187.507 16V27H182.507V16H187.507Z" fill="#006C98"/>
<path d="M149.503 16V27H144.503V16H149.503Z" fill="#006C98"/>
<path d="M149.503 27V38H144.503V27H149.503Z" fill="#005172"/>
<path d="M144.5 38.0036L147.953 34.3875L152.957 40.3839L149.503 44L144.5 38.0036Z" fill="#006C98"/>
<path d="M149.503 39H159.503V44H149.503V39Z" fill="#005172"/>
<path d="M164.503 38L161.048 34.3815L156.045 40.3779L159.5 43.9964L164.503 38Z" fill="#006C98"/>
<path d="M164.503 27V38H159.503V27H164.503Z" fill="#005172"/>
<path d="M164.503 16V27H159.503V16H164.503Z" fill="#006C98"/>
<rect x="127.5" y="16" width="28" height="5" transform="rotate(90 127.5 16)" fill="#005172"/>
<rect x="121.5" y="16" width="12" height="5" fill="#006C98"/>
<rect x="133.5" y="16" width="11.3137" height="5" transform="rotate(45 133.5 16)" fill="#005172"/>
<rect x="141.5" y="24" width="12" height="5" transform="rotate(90 141.5 24)" fill="#006C98"/>
<rect x="141.5" y="36" width="11.3137" height="5" transform="rotate(135 141.5 36)" fill="#005172"/>
<rect x="133.5" y="39" width="5" height="12" transform="rotate(90 133.5 39)" fill="#006C98"/>
<path d="M103.5 58V86H98.5V58H103.5Z" fill="#E5E5E5"/>
<path d="M107.5 81V86H94.5V81H107.5Z" fill="#F5F5F5"/>
<path d="M107.5 58V63H94.5V58H107.5Z" fill="#F5F5F5"/>
<path d="M91.5 58V86H86.5V58H91.5Z" fill="#E5E5E5"/>
<path d="M87.7286 80V85H74.0143V80H87.7286Z" fill="#F5F5F5"/>
<path d="M76.6429 58V86H71.6429V58H76.6429Z" fill="#E5E5E5"/>
<path d="M53.6429 58L53.6429 86H48.6429V58H53.6429Z" fill="#E5E5E5"/>
<path d="M64.7286 80V85H51.0143V80H64.7286Z" fill="#F5F5F5"/>
<path d="M68.5 58V86H63.5V58H68.5Z" fill="#E5E5E5"/>
<rect x="31.5" y="58" width="28" height="5" transform="rotate(90 31.5 58)" fill="#E5E5E5"/>
<rect x="25.5" y="58" width="12" height="5" fill="#F5F5F5"/>
<rect x="37.5" y="58" width="11.3137" height="5" transform="rotate(45 37.5 58)" fill="#E5E5E5"/>
<rect x="45.5" y="66" width="12" height="5" transform="rotate(90 45.5 66)" fill="#F5F5F5"/>
<rect x="45.5" y="78" width="11.3137" height="5" transform="rotate(135 45.5 78)" fill="#E5E5E5"/>
<rect x="37.5" y="81" width="5" height="12" transform="rotate(90 37.5 81)" fill="#F5F5F5"/>
<path d="M199.5 58V86H194.5V58H199.5Z" fill="#E5E5E5"/>
<path d="M203.5 81V86H190.5V81H203.5Z" fill="#F5F5F5"/>
<path d="M203.5 58V63H190.5V58H203.5Z" fill="#F5F5F5"/>
<path d="M172.507 58V69H167.507V58H172.507Z" fill="#F5F5F5"/>
<path d="M172.507 69V80H167.507V69H172.507Z" fill="#E5E5E5"/>
<path d="M167.503 80.0036L170.957 76.3875L175.96 82.3839L172.507 86L167.503 80.0036Z" fill="#F5F5F5"/>
<path d="M172.507 81H182.507V86H172.507V81Z" fill="#E5E5E5"/>
<path d="M187.507 80L184.052 76.3815L179.048 82.3779L182.504 85.9964L187.507 80Z" fill="#F5F5F5"/>
<path d="M187.507 69V80H182.507V69H187.507Z" fill="#E5E5E5"/>
<path d="M187.507 58V69H182.507V58H187.507Z" fill="#F5F5F5"/>
<path d="M149.503 58V69H144.503V58H149.503Z" fill="#F5F5F5"/>
<path d="M149.503 69V80H144.503V69H149.503Z" fill="#E5E5E5"/>
<path d="M144.5 80.0036L147.953 76.3875L152.957 82.3839L149.503 86L144.5 80.0036Z" fill="#F5F5F5"/>
<path d="M149.503 81H159.503V86H149.503V81Z" fill="#E5E5E5"/>
<path d="M164.503 80L161.048 76.3815L156.045 82.3779L159.5 85.9964L164.503 80Z" fill="#F5F5F5"/>
<path d="M164.503 69V80H159.503V69H164.503Z" fill="#E5E5E5"/>
<path d="M164.503 58V69H159.503V58H164.503Z" fill="#F5F5F5"/>
<rect x="127.5" y="58" width="28" height="5" transform="rotate(90 127.5 58)" fill="#E5E5E5"/>
<rect x="121.5" y="58" width="12" height="5" fill="#F5F5F5"/>
<rect x="133.5" y="58" width="11.3137" height="5" transform="rotate(45 133.5 58)" fill="#E5E5E5"/>
<rect x="141.5" y="66" width="12" height="5" transform="rotate(90 141.5 66)" fill="#F5F5F5"/>
<rect x="141.5" y="78" width="11.3137" height="5" transform="rotate(135 141.5 78)" fill="#E5E5E5"/>
<rect x="133.5" y="81" width="5" height="12" transform="rotate(90 133.5 81)" fill="#F5F5F5"/>
<path d="M103.5 100V128H98.5V100H103.5Z" fill="#CC7A00"/>
<path d="M107.5 123V128H94.5V123H107.5Z" fill="#E99B26"/>
<path d="M107.5 100V105H94.5V100H107.5Z" fill="#E99B26"/>
<path d="M91.5 100V128H86.5V100H91.5Z" fill="#CC7A00"/>
<path d="M87.7286 122V127H74.0143V122H87.7286Z" fill="#E99B26"/>
<path d="M76.6429 100V128H71.6429V100H76.6429Z" fill="#CC7A00"/>
<path d="M53.6429 100L53.6429 128H48.6429V100H53.6429Z" fill="#CC7A00"/>
<path d="M64.7286 122V127H51.0143V122H64.7286Z" fill="#E99B26"/>
<path d="M68.5 100V128H63.5V100H68.5Z" fill="#CC7A00"/>
<rect x="31.5" y="100" width="28" height="5" transform="rotate(90 31.5 100)" fill="#CC7A00"/>
<rect x="25.5" y="100" width="12" height="5" fill="#E99B26"/>
<rect x="37.5" y="100" width="11.3137" height="5" transform="rotate(45 37.5 100)" fill="#CC7A00"/>
<rect x="45.5" y="108" width="12" height="5" transform="rotate(90 45.5 108)" fill="#E99B26"/>
<rect x="45.5" y="120" width="11.3137" height="5" transform="rotate(135 45.5 120)" fill="#CC7A00"/>
<rect x="37.5" y="123" width="5" height="12" transform="rotate(90 37.5 123)" fill="#E99B26"/>
<path d="M199.5 100V128H194.5V100H199.5Z" fill="#E99B26"/>
<path d="M203.5 123V128H190.5V123H203.5Z" fill="#CC7A00"/>
<path d="M203.5 100V105H190.5V100H203.5Z" fill="#CC7A00"/>
<path d="M172.507 100V111H167.507V100H172.507Z" fill="#CC7A00"/>
<path d="M172.507 111V122H167.507V111H172.507Z" fill="#E99B26"/>
<path d="M167.503 122.004L170.957 118.387L175.96 124.384L172.507 128L167.503 122.004Z" fill="#CC7A00"/>
<path d="M172.507 123H182.507V128H172.507V123Z" fill="#E99B26"/>
<path d="M187.507 122L184.052 118.381L179.048 124.378L182.504 127.996L187.507 122Z" fill="#CC7A00"/>
<path d="M187.507 111V122H182.507V111H187.507Z" fill="#E99B26"/>
<path d="M187.507 100V111H182.507V100H187.507Z" fill="#CC7A00"/>
<path d="M149.503 100V111H144.503V100H149.503Z" fill="#CC7A00"/>
<path d="M149.503 111V122H144.503V111H149.503Z" fill="#E99B26"/>
<path d="M144.5 122.004L147.953 118.387L152.957 124.384L149.503 128L144.5 122.004Z" fill="#CC7A00"/>
<path d="M149.503 123H159.503V128H149.503V123Z" fill="#E99B26"/>
<path d="M164.503 122L161.048 118.381L156.045 124.378L159.5 127.996L164.503 122Z" fill="#CC7A00"/>
<path d="M164.503 111V122H159.503V111H164.503Z" fill="#E99B26"/>
<path d="M164.503 100V111H159.503V100H164.503Z" fill="#CC7A00"/>
<rect x="127.5" y="100" width="28" height="5" transform="rotate(90 127.5 100)" fill="#E99B26"/>
<rect x="121.5" y="100" width="12" height="5" fill="#CC7A00"/>
<rect x="133.5" y="100" width="11.3137" height="5" transform="rotate(45 133.5 100)" fill="#E99B26"/>
<rect x="141.5" y="108" width="12" height="5" transform="rotate(90 141.5 108)" fill="#CC7A00"/>
<rect x="141.5" y="120" width="11.3137" height="5" transform="rotate(135 141.5 120)" fill="#E99B26"/>
<rect x="133.5" y="123" width="5" height="12" transform="rotate(90 133.5 123)" fill="#CC7A00"/>
<path d="M103.5 142V170H98.5V142H103.5Z" fill="#292929"/>
<path d="M107.5 165V170H94.5V165H107.5Z" fill="#676767"/>
<path d="M107.5 142V147H94.5V142H107.5Z" fill="#676767"/>
<path d="M91.5 142V170H86.5V142H91.5Z" fill="#292929"/>
<path d="M87.7286 164V169H74.0143V164H87.7286Z" fill="#676767"/>
<path d="M76.6429 142V170H71.6429V142H76.6429Z" fill="#292929"/>
<path d="M53.6429 142L53.6429 170H48.6429V142H53.6429Z" fill="#292929"/>
<path d="M64.7286 164V169H51.0143V164H64.7286Z" fill="#676767"/>
<path d="M68.5 142V170H63.5V142H68.5Z" fill="#292929"/>
<rect x="31.5" y="142" width="28" height="5" transform="rotate(90 31.5 142)" fill="#676767"/>
<rect x="25.5" y="142" width="12" height="5" fill="#292929"/>
<rect x="37.5" y="142" width="11.3137" height="5" transform="rotate(45 37.5 142)" fill="#676767"/>
<rect x="45.5" y="150" width="12" height="5" transform="rotate(90 45.5 150)" fill="#292929"/>
<rect x="45.5" y="162" width="11.3137" height="5" transform="rotate(135 45.5 162)" fill="#676767"/>
<rect x="37.5" y="165" width="5" height="12" transform="rotate(90 37.5 165)" fill="#292929"/>
<path d="M199.5 142V170H194.5V142H199.5Z" fill="#676767"/>
<path d="M203.5 165V170H190.5V165H203.5Z" fill="#292929"/>
<path d="M203.5 142V147H190.5V142H203.5Z" fill="#292929"/>
<path d="M172.507 142V153H167.507V142H172.507Z" fill="#292929"/>
<path d="M172.507 153V164H167.507V153H172.507Z" fill="#676767"/>
<path d="M167.503 164.004L170.957 160.387L175.96 166.384L172.507 170L167.503 164.004Z" fill="#292929"/>
<path d="M172.507 165H182.507V170H172.507V165Z" fill="#676767"/>
<path d="M187.507 164L184.052 160.381L179.048 166.378L182.504 169.996L187.507 164Z" fill="#292929"/>
<path d="M187.507 153V164H182.507V153H187.507Z" fill="#676767"/>
<path d="M187.507 142V153H182.507V142H187.507Z" fill="#292929"/>
<path d="M149.503 142V153H144.503V142H149.503Z" fill="#292929"/>
<path d="M149.503 153V164H144.503V153H149.503Z" fill="#676767"/>
<path d="M144.5 164.004L147.953 160.387L152.957 166.384L149.503 170L144.5 164.004Z" fill="#292929"/>
<path d="M149.503 165H159.503V170H149.503V165Z" fill="#676767"/>
<path d="M164.503 164L161.048 160.381L156.045 166.378L159.5 169.996L164.503 164Z" fill="#292929"/>
<path d="M164.503 153V164H159.503V153H164.503Z" fill="#676767"/>
<path d="M164.503 142V153H159.503V142H164.503Z" fill="#292929"/>
<rect x="127.5" y="142" width="28" height="5" transform="rotate(90 127.5 142)" fill="#676767"/>
<rect x="121.5" y="142" width="12" height="5" fill="#292929"/>
<rect x="133.5" y="142" width="11.3137" height="5" transform="rotate(45 133.5 142)" fill="#676767"/>
<rect x="141.5" y="150" width="12" height="5" transform="rotate(90 141.5 150)" fill="#292929"/>
<rect x="141.5" y="162" width="11.3137" height="5" transform="rotate(135 141.5 162)" fill="#676767"/>
<rect x="133.5" y="165" width="5" height="12" transform="rotate(90 133.5 165)" fill="#292929"/>
</svg>
